<svg width="866" height="751" viewBox="0 0 866 751" fill="none" xmlns="http://www.w3.org/2000/svg">
<path d="M261.5 0L436 100L261.5 200L87 100L261.5 0Z" fill="#434343"/>
<path d="M607 0L778 100L607 200L436 100L607 0Z" fill="#434343"/>
<path d="M259.45 398.912L432.563 499.103L432.774 699.118L259.662 598.927L259.45 398.912Z" fill="#2F98BB"/>
<path d="M87.3442 99.3962L261.35 199.071L260.668 399.602L86.6618 299.927L87.3442 99.3962Z" fill="#2F98BB"/>
<path d="M605.774 399.912L605.563 599.927L432.45 700.118L432.662 500.103L605.774 399.912Z" fill="#434343"/>
<path d="M778.774 99.9122L778.563 299.927L605.45 400.118L605.662 200.103L778.774 99.9122Z" fill="#2F98BB"/>
<path d="M433 161L559.44 231.25V371.75L433 442L306.56 371.75V231.25L433 161Z" fill="#4CC1E2"/>
<g filter="url(#filter0_d)">
<path d="M364.3 347C363.633 347 363.067 346.8 362.6 346.4C362.2 345.933 362 345.367 362 344.7V285.9H342.8C342.133 285.9 341.567 285.7 341.1 285.3C340.7 284.833 340.5 284.267 340.5 283.6V279.4C340.5 278.733 340.7 278.167 341.1 277.7C341.567 277.233 342.133 277 342.8 277H391C391.733 277 392.3 277.233 392.7 277.7C393.167 278.1 393.4 278.667 393.4 279.4V283.6C393.4 284.267 393.167 284.833 392.7 285.3C392.233 285.7 391.667 285.9 391 285.9H371.9V344.7C371.9 345.367 371.667 345.933 371.2 346.4C370.733 346.8 370.167 347 369.5 347H364.3ZM428.345 348C419.412 348 412.612 345.6 407.945 340.8C403.345 336 400.879 329.367 400.545 320.9C400.479 319.1 400.445 316.167 400.445 312.1C400.445 307.967 400.479 304.967 400.545 303.1C400.879 294.7 403.379 288.1 408.045 283.3C412.712 278.433 419.479 276 428.345 276C434.279 276 439.312 277.067 443.445 279.2C447.579 281.267 450.712 284 452.845 287.4C454.979 290.8 456.145 294.433 456.345 298.3V298.5C456.345 299.033 456.112 299.5 455.645 299.9C455.245 300.233 454.779 300.4 454.245 300.4H448.745C447.412 300.4 446.579 299.633 446.245 298.1C445.112 293.1 443.079 289.6 440.145 287.6C437.212 285.533 433.279 284.5 428.345 284.5C416.879 284.5 410.945 290.867 410.545 303.6C410.479 305.4 410.445 308.167 410.445 311.9C410.445 315.633 410.479 318.467 410.545 320.4C410.945 333.133 416.879 339.5 428.345 339.5C433.279 339.5 437.212 338.5 440.145 336.5C443.145 334.433 445.179 330.9 446.245 325.9C446.445 325.033 446.745 324.433 447.145 324.1C447.545 323.767 448.079 323.6 448.745 323.6H454.245C454.845 323.6 455.345 323.8 455.745 324.2C456.212 324.533 456.412 325 456.345 325.6C456.145 329.533 454.979 333.2 452.845 336.6C450.712 340 447.579 342.767 443.445 344.9C439.312 346.967 434.279 348 428.345 348ZM494.947 348C486.014 348 479.214 345.6 474.547 340.8C469.947 336 467.48 329.367 467.147 320.9C467.08 319.1 467.047 316.167 467.047 312.1C467.047 307.967 467.08 304.967 467.147 303.1C467.48 294.7 469.98 288.1 474.647 283.3C479.314 278.433 486.08 276 494.947 276C500.88 276 505.914 277.067 510.047 279.2C514.18 281.267 517.314 284 519.447 287.4C521.58 290.8 522.747 294.433 522.947 298.3V298.5C522.947 299.033 522.714 299.5 522.247 299.9C521.847 300.233 521.38 300.4 520.847 300.4H515.347C514.014 300.4 513.18 299.633 512.847 298.1C511.714 293.1 509.68 289.6 506.747 287.6C503.814 285.533 499.88 284.5 494.947 284.5C483.48 284.5 477.547 290.867 477.147 303.6C477.08 305.4 477.047 308.167 477.047 311.9C477.047 315.633 477.08 318.467 477.147 320.4C477.547 333.133 483.48 339.5 494.947 339.5C499.88 339.5 503.814 338.5 506.747 336.5C509.747 334.433 511.78 330.9 512.847 325.9C513.047 325.033 513.347 324.433 513.747 324.1C514.147 323.767 514.68 323.6 515.347 323.6H520.847C521.447 323.6 521.947 323.8 522.347 324.2C522.814 324.533 523.014 325 522.947 325.6C522.747 329.533 521.58 333.2 519.447 336.6C517.314 340 514.18 342.767 510.047 344.9C505.914 346.967 500.88 348 494.947 348Z" fill="#434343"/>
</g>
<defs>
<filter id="filter0_d" x="336.5" y="276" width="190.459" height="80" filterUnits="userSpaceOnUse" color-interpolation-filters="sRGB">
<feFlood flood-opacity="0" result="BackgroundImageFix"/>
<feColorMatrix in="SourceAlpha" type="matrix" values="0 0 0 0 0 0 0 0 0 0 0 0 0 0 0 0 0 0 127 0"/>
<feOffset dy="4"/>
<feGaussianBlur stdDeviation="2"/>
<feColorMatrix type="matrix" values="0 0 0 0 0 0 0 0 0 0 0 0 0 0 0 0 0 0 0.25 0"/>
<feBlend mode="normal" in2="BackgroundImageFix" result="effect1_dropShadow"/>
<feBlend mode="normal" in="SourceGraphic" in2="effect1_dropShadow" result="shape"/>
</filter>
</defs>
</svg>
